#!OML:ASF X:\für Bonn\!DataBase\2005_08_12_Daniel\c3d\Daniel.ASF
:FULLY-SPECIFIED
:DEGREES
1
root -4.47092 17.1873 -1.14719 -71.0318 -89.0984 61.9237
lowerback 16.3786 -1.83931 1.71558
upperback 1.25966 -2.39797 -2.21391
thorax -8.00972 -1.29994 -2.7934
lowerneck 8.00572 2.52602 -1.92149
upperneck 6.04236 3.026 -0.285385
head 0.519918 1.38818 0.167188
rclavicle 2.4289e-014 1.86858e-014
rhumerus 59.1101 -11.0463 -131.754
rradius 6.96102
rwrist 97.2555
rhand -21.0808 8.21788
rfingers 7.12502
rthumb 5.29635 -21.6959
lclavicle 2.4289e-014 1.86858e-014
lhumerus 58.0091 5.14551 100.662
lradius 8.16732
lwrist -76.0032
lhand -14.1019 5.12812
lfingers 7.12502
lthumb 12.0309 34.7623
rfemur 7.22387 14.0538 20.3168
rtibia 22.1847
rfoot 328.816 -19.8144
rtoes -6.8183
lfemur -542.05 195.896 -199.947
ltibia 34.4061
lfoot -29.5825 12.9513
ltoes -0.94014
2
root -4.46778 17.1814 -1.14557 -70.1864 -89.1491 60.9624
lowerback 16.513 -1.85366 1.77087
upperback 1.27408 -2.4063 -2.20975
thorax -8.0714 -1.3066 -2.81575
lowerneck 7.97439 2.54223 -1.96086
upperneck 6.13123 3.04193 -0.20727
head 0.549941 1.39364 0.197965
rclavicle -1.42876e-014 -5.96354e-015
rhumerus 59.0284 -11.0164 -131.576
rradius 6.92518
rwrist 97.1382
rhand -21.2009 8.07756
rfingers 7.12502
rthumb 5.18039 -21.8391
lclavicle -1.42876e-014 -5.96354e-015
lhumerus 58.0757 5.12651 100.667
lradius 8.02976
lwrist -75.956
lhand -14.2412 5.25376
lfingers 7.12502
lthumb 11.8966 34.8958
rfemur 7.13492 13.1661 20.0797
rtibia 22.3346
rfoot 329.334 -19.2267
rtoes -7.39684
lfemur -542.066 195.381 -199.765
ltibia 34.5427
lfoot -29.4165 12.4977
ltoes -1.07656
3
root -4.46467 17.1742 -1.14455 -68.3812 -89.2422 59.0319
lowerback 16.6824 -1.86976 1.84129
upperback 1.27998 -2.41062 -2.17457
thorax -8.16069 -1.31138 -2.81342
lowerneck 7.98002 2.54644 -1.97548
upperneck 6.17806 3.04449 -0.19132
head 0.56284 1.3935 0.205399
rclavicle 1.08244e-014 -5.96354e-015
rhumerus 58.9236 -10.9432 -131.394
rradius 6.89493
rwrist 96.9919
rhand -21.2774 7.93015
rfingers 7.12502
rthumb 5.10655 -21.9883
lclavicle 1.08244e-014 -5.96354e-015
lhumerus 58.1199 5.13142 100.691
lradius 7.92676
lwrist -75.9662
lhand -14.2993 5.36162
lfingers 7.12502
lthumb 11.8405 35.0069
rfemur 7.05163 12.3022 19.9021
rtibia 22.5049
rfoot 329.82 -18.6437
rtoes -8.02388
lfemur -542.073 194.899 -199.542
ltibia 34.7042
lfoot -29.3024 12.0196
ltoes -1.03276
4
root -4.46052 17.1661 -1.14303 -65.2635 -89.3467 55.7902
lowerback 16.8449 -1.88189 1.95264
upperback 1.29559 -2.40338 -2.15518
thorax -8.23718 -1.31238 -2.85441
lowerneck 7.96282 2.55096 -1.96214
upperneck 6.27103 3.04892 -0.147836
head 0.593381 1.39414 0.217307
rclavicle 7.95139e-016 1.59028e-015
rhumerus 58.8839 -10.9067 -131.225
rradius 6.81718
rwrist 96.7588
rhand -21.3462 7.79408
rfingers 7.12502
rthumb 5.04004 -22.126
lclavicle 7.95139e-016 1.59028e-015
lhumerus 58.162 5.09444 100.7
lradius 7.83835
lwrist -75.951
lhand -14.3599 5.49169
lfingers 7.12502
lthumb 11.7821 35.1403
rfemur 6.95953 11.4757 19.7452
rtibia 22.6862
rfoot 330.215 -18.0423
rtoes -8.64519
lfemur -542.11 194.385 -199.293
ltibia 34.8923
lfoot -29.1611 11.5518
ltoes -1.1668
5
root -4.45504 17.1573 -1.14166 -62.0995 -89.4017 52.5
lowerback 16.9993 -1.89959 1.98482
upperback 1.33111 -2.41714 -2.11888
thorax -8.28483 -1.32006 -2.82721
lowerneck 7.99554 2.56144 -2.00796
upperneck 6.25905 3.05727 -0.120538
head 0.58335 1.39731 0.232318
rclavicle -1.17904e-014 -7.15625e-015
rhumerus 58.8394 -10.7945 -131.035
rradius 6.75343
rwrist 96.5583
rhand -21.4118 7.68582
rfingers 7.12502
rthumb 4.97669 -22.2357
lclavicle -1.17904e-014 -7.15625e-015
lhumerus 58.218 5.09514 100.745
lradius 7.81154
lwrist -75.9409
lhand -14.3412 5.57064
lfingers 7.12502
lthumb 11.8001 35.2182
rfemur 6.86237 10.7121 19.5666
rtibia 22.8999
rfoot 330.534 -17.5641
rtoes -9.60049
lfemur -542.151 193.922 -199.1
ltibia 35.0894
lfoot -29.0524 11.1003
ltoes -1.24605
6
root -4.4518 17.1481 -1.14202 -57.008 -89.4019 47.2548
lowerback 17.1754 -1.92381 1.98871
upperback 1.36805 -2.44798 -2.11508
thorax -8.34434 -1.33594 -2.81431
lowerneck 8.05322 2.57124 -1.99142
upperneck 6.2565 3.06771 -0.0760897
head 0.57288 1.40252 0.242182
rclavicle 1.55021e-014 2.8625e-014
rhumerus 58.8157 -10.7217 -130.88
rradius 6.67621
rwrist 96.2673
rhand -21.4156 7.56993
rfingers 7.12502
rthumb 4.97305 -22.3517
lclavicle 1.55021e-014 2.8625e-014
lhumerus 58.2435 5.08263 100.742
lradius 7.79364
lwrist -75.9563
lhand -14.3369 5.64907
lfingers 7.12502
lthumb 11.8043 35.2964
rfemur 6.79685 9.95128 19.3709
rtibia 23.1497
rfoot 330.796 -17.1269
rtoes -10.5794
lfemur -542.171 193.445 -198.935
ltibia 35.2941
lfoot -28.9102 10.591
ltoes -1.33642
7
root -4.4449 17.1392 -1.14033 -54.8346 -89.429 44.9571
lowerback 17.3657 -1.93989 2.00682
upperback 1.38868 -2.46357 -2.09855
thorax -8.42843 -1.34488 -2.79895
lowerneck 8.13624 2.58079 -2.0189
upperneck 6.23289 3.07439 -0.0620169
head 0.551856 1.40503 0.249517
rclavicle 7.39541e-015 -5.96354e-015
rhumerus 58.7848 -10.6285 -130.704
rradius 6.59319
rwrist 96.0359
rhand -21.3949 7.45009
rfingers 7.12502
rthumb 4.99302 -22.4711
lclavicle 7.39541e-015 -5.96354e-015
lhumerus 58.2626 5.09293 100.759
lradius 7.82878
lwrist -76.0066
lhand -14.2745 5.67922
lfingers 7.12502
lthumb 11.8645 35.3231
rfemur 6.64264 9.16229 19.1376
rtibia 23.4568
rfoot 331.077 -16.6115
rtoes -11.5466
lfemur -542.24 192.875 -198.743
ltibia 35.5002
lfoot -28.7252 10.0785
ltoes -1.41843
8
root -4.43775 17.1286 -1.13844 -53.9253 -89.4258 43.904
lowerback 17.5787 -1.95216 1.98934
upperback 1.41772 -2.48236 -2.094
thorax -8.51506 -1.35447 -2.77496
lowerneck 8.26638 2.59071 -2.02588
upperneck 6.16639 3.08154 -0.0261958
head 0.510211 1.40881 0.259223
rclavicle -2.47083e-014 5.1684e-015
rhumerus 58.7577 -10.5263 -130.541
rradius 6.55041
rwrist 95.7997
rhand -21.323 7.30345
rfingers 7.12502
rthumb 5.06249 -22.6161
lclavicle -2.47083e-014 5.1684e-015
lhumerus 58.2735 5.09355 100.771
lradius 7.90307
lwrist -76.0593
lhand -14.1788 5.64245
lfingers 7.12502
lthumb 11.9567 35.281
rfemur 6.47971 8.29648 18.8461
rtibia 23.8022
rfoot 331.429 -16.0714
rtoes -12.4193
lfemur -542.304 192.297 -198.582
ltibia 35.7211
lfoot -28.5466 9.54285
ltoes -1.53981
9
root -4.42941 17.1172 -1.13628 -53.5314 -89.4297 43.3679
lowerback 17.8191 -1.95765 1.97996
upperback 1.44592 -2.49041 -2.0881
thorax -8.61723 -1.35934 -2.75614
lowerneck 8.34998 2.58574 -2.0196
upperneck 6.12849 3.07202 -0.0113533
head 0.48535 1.40431 0.261578
rclavicle 1.86361e-017 7.95139e-016
rhumerus 58.7895 -10.4332 -130.368
rradius 6.45155
rwrist 95.5991
rhand -21.2927 7.16861
rfingers 7.12502
rthumb 5.09177 -22.7502
lclavicle 1.86361e-017 7.95139e-016
lhumerus 58.2785 5.07092 100.8
lradius 8.01048
lwrist -76.1707
lhand -14.1088 5.61823
lfingers 7.12502
lthumb 12.0242 35.2528
rfemur 6.27648 7.40961 18.5394
rtibia 24.2046
rfoot 331.778 -15.4579
rtoes -13.0801
lfemur -542.386 191.652 -198.396
ltibia 35.9613
lfoot -28.3533 8.93047
ltoes -1.57353
10
root -4.42131 17.1058 -1.13323 -55.0066 -89.4493 44.7081
lowerback 18.0609 -1.96282 1.9867
upperback 1.47852 -2.49653 -2.09746
thorax -8.71653 -1.36429 -2.76354
lowerneck 8.43082 2.58766 -1.99208
upperneck 6.06005 3.07433 0.00753715
head 0.451736 1.40683 0.261316
rclavicle 9.91439e-015 -1.59028e-015
rhumerus 58.8092 -10.3243 -130.227
rradius 6.39873
rwrist 95.3656
rhand -21.2591 7.05048
rfingers 7.12502
rthumb 5.12414 -22.8676
lclavicle 9.91439e-015 -1.59028e-015
lhumerus 58.2913 5.05949 100.793
lradius 8.11918
lwrist -76.2775
lhand -14.0884 5.56256
lfingers 7.12502
lthumb 12.0439 35.196
rfemur 6.02215 6.38867 18.1719
rtibia 24.6609
rfoot 332.237 -14.6715
rtoes -13.5183
lfemur -542.488 190.973 -198.207
ltibia 36.2317
lfoot -28.1954 8.30053
ltoes -1.65124
11
root -4.41202 17.0913 -1.12925 -55.5037 -89.4596 45.0496
lowerback 18.3415 -1.97699 1.99518
upperback 1.51612 -2.51289 -2.09491
thorax -8.83184 -1.37415 -2.75554
lowerneck 8.47679 2.59877 -2.02276
upperneck 6.02347 3.0844 0.0462334
head 0.432014 1.41158 0.277009
rclavicle -2.09966e-015 -9.93923e-015
rhumerus 58.8345 -10.2062 -130.059
rradius 6.31673
rwrist 95.1606
rhand -21.2779 6.90909
rfingers 7.12502
rthumb 5.10599 -23.0094
lclavicle -2.09966e-015 -9.93923e-015
lhumerus 58.3122 5.05606 100.814
lradius 8.23073
lwrist -76.3209
lhand -14.0729 5.51885
lfingers 7.12502
lthumb 12.0588 35.1514
rfemur 5.75065 5.29639 17.7839
rtibia 25.1943
rfoot 332.696 -13.7973
rtoes -13.832
lfemur -542.589 190.272 -198.012
ltibia 36.5326
lfoot -28.0296 7.66011
ltoes -1.6528
12
root -4.402 17.0757 -1.12523 -56.5986 -89.4734 45.9905
lowerback 18.654 -1.99045 2.00317
upperback 1.54834 -2.52722 -2.08393
thorax -8.96988 -1.38304 -2.73778
lowerneck 8.50927 2.61493 -2.10048
upperneck 5.96474 3.09797 0.110196
head 0.406359 1.41769 0.307979
rclavicle -1.01691e-014 -1.66979e-014
rhumerus 58.8668 -10.0581 -129.888
rradius 6.2577
rwrist 94.9864
rhand -21.2479 6.80594
rfingers 7.12502
rthumb 5.135 -23.1118
lclavicle -1.01691e-014 -1.66979e-014
lhumerus 58.368 5.0651 100.847
lradius 8.27733
lwrist -76.3315
lhand -14.1273 5.3506
lfingers 7.12502
lthumb 12.0063 34.9862
rfemur 5.43805 4.20187 17.3844
rtibia 25.7963
rfoot 333.141 -12.8692
rtoes -14.1331
lfemur -542.722 189.502 -197.801
ltibia 36.8864
lfoot -27.8754 6.96603
ltoes -1.87862
13
root -4.39152 17.0579 -1.1206 -59.4299 -89.464 48.6804
lowerback 18.9727 -2.00298 2.00161
upperback 1.57146 -2.54503 -2.101
thorax -9.12237 -1.3941 -2.74394
lowerneck 8.53672 2.61806 -2.10484
upperneck 5.93149 3.1008 0.132848
head 0.391308 1.41945 0.31496
rclavicle 1.6027e-015 -5.96354e-015
rhumerus 58.8886 -9.93532 -129.743
rradius 6.22134
rwrist 94.7817
rhand -21.2462 6.67902
rfingers 7.12502
rthumb 5.13661 -23.2387
lclavicle 1.6027e-015 -5.96354e-015
lhumerus 58.4022 5.04874 100.855
lradius 8.31276
lwrist -76.279
lhand -14.1572 5.28216
lfingers 7.12502
lthumb 11.9775 34.9195
rfemur 5.06529 3.08652 16.9392
rtibia 26.4889
rfoot 333.533 -11.8941
rtoes -14.2661
lfemur -542.899 188.716 -197.609
ltibia 37.2864
lfoot -27.7313 6.21773
ltoes -1.89139
